<?xml version="1.0" standalone="no"?>
<!DOCTYPE svg PUBLIC "-//W3C//DTD SVG 20010904//EN"
 "http://www.w3.org/TR/2001/REC-SVG-20010904/DTD/svg10.dtd">
<svg version="1.0" xmlns="http://www.w3.org/2000/svg"
 width="2500.000000pt" height="2500.000000pt" viewBox="0 0 2500.000000 2500.000000"
 preserveAspectRatio="xMidYMid meet">

<g transform="translate(0.000000,2500.000000) scale(0.100000,-0.100000)"
fill="#000000" stroke="none">
<path d="M2965 17639 c-22 -4 -71 -13 -110 -19 -139 -21 -359 -81 -462 -126
-17 -8 -36 -14 -41 -14 -6 0 -23 -7 -39 -15 -15 -8 -57 -28 -93 -45 -36 -16
-92 -45 -125 -64 -33 -20 -67 -38 -75 -42 -24 -12 -153 -95 -181 -118 -14 -12
-36 -28 -49 -36 -13 -8 -44 -33 -69 -54 -25 -22 -55 -47 -65 -55 -35 -30 -211
-208 -255 -261 -105 -122 -269 -373 -323 -490 -6 -14 -26 -57 -45 -96 -18 -39
-33 -78 -33 -85 0 -8 -7 -23 -15 -33 -8 -11 -15 -28 -15 -39 0 -10 -6 -33 -14
-50 -25 -60 -78 -265 -96 -372 -29 -185 -31 -349 -28 -3220 3 -2730 5 -2935
21 -3000 9 -38 17 -83 17 -100 0 -16 6 -50 14 -75 8 -25 19 -65 26 -90 32
-128 62 -220 80 -252 6 -10 10 -23 10 -30 0 -11 138 -293 163 -333 13 -20 108
-167 130 -199 35 -53 181 -221 257 -296 87 -86 233 -209 325 -272 82 -57 269
-165 326 -189 30 -12 59 -26 64 -30 6 -4 42 -19 80 -34 39 -14 86 -32 105 -40
33 -13 122 -39 220 -66 45 -12 145 -31 255 -48 33 -5 105 -11 160 -13 l100 -3
5 3863 c4 3419 7 3864 20 3872 9 6 510 9 1324 7 1152 -2 1310 -4 1316 -17 27
-56 84 -214 110 -305 15 -52 42 -129 55 -160 19 -44 35 -95 46 -140 6 -21 14
-44 18 -50 5 -5 11 -23 15 -40 4 -16 13 -43 20 -60 18 -41 36 -92 47 -138 5
-21 14 -45 19 -55 11 -19 36 -89 50 -137 4 -16 14 -46 21 -65 55 -154 49 -138
104 -295 15 -44 30 -92 32 -107 l5 -28 -550 0 c-492 0 -550 -2 -556 -16 -3 -9
-6 -327 -6 -709 0 -568 2 -695 13 -704 10 -8 241 -12 806 -13 l793 -3 20 -50
c11 -27 23 -63 28 -80 5 -16 27 -82 50 -145 23 -63 45 -128 50 -145 12 -43 71
-215 85 -250 16 -39 34 -92 46 -135 6 -19 17 -49 25 -67 8 -17 14 -39 14 -50
0 -10 7 -27 15 -37 8 -11 15 -28 15 -39 0 -10 6 -33 14 -50 8 -18 19 -48 25
-67 5 -19 19 -60 31 -90 12 -30 26 -72 31 -93 5 -21 13 -45 18 -55 5 -9 17
-39 26 -67 46 -145 47 -146 34 -161 -10 -12 -162 -14 -1067 -14 -842 0 -1057
-2 -1064 -12 -9 -15 -11 -2018 -2 -2042 6 -15 187 -16 1950 -16 l1943 0 21
-22 c11 -13 23 -34 26 -48 3 -14 11 -41 19 -60 15 -39 41 -119 55 -165 5 -16
27 -82 50 -145 23 -63 46 -132 51 -153 5 -21 13 -45 18 -55 5 -9 17 -42 28
-72 11 -30 25 -71 33 -90 7 -19 15 -48 17 -63 7 -38 19 -41 83 -16 30 11 69
25 85 31 54 20 292 145 363 191 161 104 275 198 427 351 88 89 173 181 190
206 16 25 48 70 71 100 77 103 181 288 241 430 9 19 22 48 29 63 8 16 14 33
14 39 0 5 6 24 14 41 22 50 47 128 55 172 4 23 10 46 14 52 4 7 12 38 18 70 5
32 16 87 24 123 29 140 35 349 35 1240 0 983 3 938 -56 761 -14 -42 -29 -84
-34 -93 -6 -10 -14 -34 -19 -55 -11 -43 -28 -95 -46 -138 -13 -31 -40 -107
-55 -160 -5 -16 -27 -82 -50 -145 -23 -63 -46 -133 -51 -154 -5 -22 -13 -44
-17 -50 -10 -16 -42 -106 -52 -146 -10 -42 -35 -113 -55 -157 -8 -17 -15 -40
-15 -50 0 -10 -4 -23 -9 -28 -6 -6 -14 -28 -20 -50 -11 -47 -36 -117 -56 -162
-8 -17 -15 -40 -15 -50 0 -10 -4 -23 -9 -28 -6 -6 -14 -28 -20 -50 -12 -50
-38 -125 -51 -147 -5 -10 -14 -34 -19 -55 -5 -21 -15 -54 -22 -73 -49 -136
-53 -149 -88 -250 -7 -19 -17 -52 -22 -73 -5 -21 -14 -45 -19 -55 -10 -17 -33
-81 -51 -139 -7 -24 -16 -33 -32 -33 -12 0 -501 0 -1087 0 -994 0 -1066 1
-1077 17 -7 9 -13 25 -13 36 0 10 -5 28 -12 40 -6 12 -15 35 -19 52 -11 43
-37 117 -49 137 -5 10 -14 34 -19 55 -12 50 -30 101 -47 136 -8 16 -14 36 -14
45 0 9 -7 30 -15 46 -9 16 -20 46 -25 65 -9 38 -34 112 -49 146 -10 21 -37
101 -51 150 -5 17 -27 82 -50 145 -23 63 -45 129 -50 145 -5 17 -20 62 -35
100 -15 39 -30 86 -34 105 -4 19 -12 44 -18 55 -11 21 -20 46 -60 170 -14 44
-29 88 -34 97 -5 9 -20 54 -35 100 -14 46 -33 98 -40 116 -8 18 -14 40 -14 48
0 9 -6 28 -14 42 -13 25 -36 87 -56 157 -11 37 -38 114 -49 140 -10 21 -37
101 -51 150 -11 37 -38 114 -49 140 -10 21 -37 101 -51 150 -5 17 -27 82 -50
145 -23 63 -45 129 -50 145 -18 61 -42 130 -51 147 -5 10 -13 34 -18 55 -5 21
-19 63 -31 93 -12 30 -27 73 -34 95 -6 22 -15 46 -20 54 -5 8 -13 31 -17 50
-4 20 -17 61 -29 91 -12 30 -28 75 -35 100 -14 45 -21 67 -58 170 -18 52 -27
76 -56 160 -7 19 -17 52 -22 73 -5 21 -14 45 -19 55 -13 22 -39 97 -51 147 -6
21 -14 44 -18 50 -5 5 -11 21 -14 35 -3 14 -17 57 -32 95 -15 39 -31 88 -36
109 -6 22 -13 44 -17 50 -9 15 -72 194 -82 236 -10 40 -42 130 -52 146 -4 6
-11 28 -17 50 -5 21 -21 71 -36 109 -14 39 -30 84 -35 100 -4 17 -14 46 -21
65 -34 99 -39 113 -88 250 -7 19 -17 52 -22 73 -5 21 -13 45 -18 55 -5 9 -17
42 -28 72 -11 30 -25 71 -32 90 -7 19 -17 52 -22 73 -5 21 -14 45 -19 55 -13
22 -39 97 -51 147 -6 22 -14 44 -20 50 -5 5 -9 18 -9 30 -1 11 -9 38 -20 60
-11 22 -19 48 -20 58 0 11 -6 31 -14 45 -7 15 -24 61 -37 102 -13 41 -29 84
-36 95 -7 11 -13 31 -13 45 0 15 -7 35 -15 46 -8 10 -15 30 -15 44 0 14 -6 34
-13 45 -8 11 -24 54 -36 95 -13 41 -29 90 -37 108 -8 18 -14 38 -14 45 -1 7
-9 30 -20 52 -11 22 -19 48 -20 58 0 10 -5 28 -12 40 -6 12 -15 35 -19 52 -4
16 -20 62 -34 100 -15 39 -30 84 -35 100 -11 40 -30 93 -45 130 -17 39 -44
120 -56 169 -5 22 -13 44 -17 50 -7 12 -68 184 -82 231 -5 17 -20 62 -34 100
-27 74 -32 111 -16 117 5 2 490 1 1077 -2 l1067 -5 22 -60 c39 -108 46 -130
54 -165 13 -54 40 -132 56 -162 8 -14 14 -35 14 -47 0 -11 6 -35 14 -53 7 -18
24 -67 36 -108 12 -41 29 -90 36 -108 8 -18 14 -40 14 -48 0 -9 6 -30 13 -47
8 -18 24 -66 37 -107 12 -41 28 -91 35 -110 7 -19 23 -69 35 -110 12 -41 28
-89 36 -107 8 -17 14 -38 14 -48 0 -9 6 -28 14 -43 7 -15 16 -44 20 -64 4 -20
13 -50 21 -65 8 -15 15 -36 15 -46 0 -10 5 -28 12 -40 6 -12 15 -38 19 -57 6
-30 36 -120 80 -245 6 -16 15 -48 20 -70 6 -21 14 -44 18 -50 5 -5 12 -27 15
-49 4 -21 13 -52 20 -70 21 -50 37 -98 47 -141 5 -22 13 -49 18 -60 16 -34 47
-133 75 -235 9 -30 20 -64 25 -75 10 -21 39 -111 51 -160 5 -16 22 -68 39
-115 17 -47 31 -94 31 -106 0 -11 7 -29 15 -40 8 -10 15 -29 15 -41 0 -12 6
-37 14 -55 18 -40 44 -121 56 -168 7 -31 51 -164 85 -260 7 -19 22 -69 35
-110 12 -41 28 -90 36 -108 8 -18 14 -39 14 -47 0 -8 6 -29 14 -47 8 -18 24
-67 36 -108 12 -41 28 -90 36 -108 8 -18 14 -40 14 -50 0 -9 6 -29 14 -43 7
-14 16 -43 20 -65 5 -21 12 -44 16 -49 5 -6 14 -29 19 -50 21 -81 63 -212 112
-350 6 -16 15 -46 19 -65 8 -37 20 -73 51 -155 11 -28 19 -60 19 -71 0 -11 7
-29 15 -40 8 -10 15 -28 15 -39 0 -11 14 -58 31 -105 17 -47 34 -101 39 -120
4 -19 12 -46 18 -60 5 -14 27 -78 47 -142 20 -65 40 -118 44 -118 6 0 13 24
42 135 5 22 16 54 24 72 8 17 15 38 15 47 0 8 6 30 14 48 8 18 24 67 36 108
12 41 28 89 36 107 8 17 14 39 14 50 1 10 7 29 15 43 8 14 14 34 15 45 0 11 8
42 19 70 31 82 43 118 51 155 7 30 39 127 81 245 6 17 15 48 20 70 6 21 14 44
18 50 5 5 11 27 15 47 4 20 13 50 21 65 8 15 15 36 15 45 0 10 6 32 14 50 7
18 24 67 36 108 13 41 28 91 35 110 7 19 23 69 35 110 12 41 28 89 36 107 8
17 14 39 14 48 0 9 5 26 12 38 6 12 15 38 19 57 6 30 36 120 80 245 6 17 15
48 20 70 6 21 14 44 19 50 4 5 11 28 15 50 4 22 14 52 21 67 8 15 14 36 14 47
0 11 6 32 14 48 8 15 24 62 36 103 13 41 28 91 35 110 7 19 23 69 35 110 12
41 27 91 34 110 30 81 38 107 46 140 11 45 38 126 56 167 8 17 14 36 14 43 0
15 23 88 80 250 6 19 16 51 20 70 7 31 50 160 85 260 7 19 23 69 35 110 12 41
33 107 47 145 24 69 39 118 67 213 8 26 18 58 24 72 5 14 20 59 32 100 12 41
28 91 37 111 29 69 22 96 -48 196 -142 203 -293 362 -474 503 -92 71 -231 167
-265 183 -8 4 -31 17 -50 28 -53 32 -178 94 -240 119 -30 12 -68 27 -85 35
-108 47 -295 96 -500 131 l-140 24 -2975 -1 c-1636 -1 -2993 -5 -3015 -10z
m6122 -2571 c6 -7 18 -38 28 -68 10 -30 23 -71 30 -90 37 -105 55 -167 55
-185 0 -11 7 -29 15 -39 8 -11 15 -27 15 -35 0 -18 65 -228 86 -279 8 -18 14
-41 14 -52 0 -11 6 -34 14 -52 8 -18 24 -67 36 -108 13 -41 28 -91 36 -110 7
-19 16 -52 20 -73 3 -20 10 -39 14 -42 5 -3 11 -23 15 -46 4 -22 13 -53 21
-67 8 -15 14 -35 14 -44 0 -10 6 -32 14 -50 29 -71 56 -165 59 -203 l2 -40
-366 -3 c-400 -2 -379 -6 -397 58 -6 19 -15 49 -21 65 -39 111 -74 214 -80
240 -4 17 -13 40 -19 52 -7 12 -12 31 -12 43 0 12 -6 36 -14 53 -16 36 -43
117 -55 162 -4 17 -13 40 -19 52 -7 12 -12 30 -12 40 0 10 -7 31 -15 47 -9 16
-20 46 -24 65 -5 20 -15 52 -22 71 -31 91 -38 110 -59 180 -12 41 -29 90 -36
108 -8 18 -14 40 -14 50 0 9 -7 30 -15 46 -9 16 -20 46 -24 65 -10 40 -27 90
-46 137 -9 20 -10 36 -3 47 8 15 42 17 382 17 287 0 376 -3 383 -12z"/>
<path d="M23085 12999 c-283 -21 -533 -158 -706 -390 -55 -73 -71 -98 -104
-169 -83 -173 -116 -416 -80 -585 8 -38 15 -79 15 -90 0 -11 7 -33 15 -49 8
-15 15 -35 15 -43 0 -8 7 -27 15 -41 8 -15 19 -38 25 -52 5 -14 16 -34 22 -45
160 -259 287 -441 531 -757 152 -197 284 -363 310 -386 l25 -23 22 23 c44 47
449 572 572 742 140 194 278 400 304 456 74 156 101 327 85 535 -11 126 -44
243 -98 340 -13 22 -27 51 -33 63 -17 40 -94 134 -167 203 -94 91 -189 151
-338 214 -47 20 -214 54 -280 57 -33 2 -100 0 -150 -3z m241 -580 c107 -48
173 -109 230 -214 38 -70 39 -71 39 -185 0 -115 0 -116 -40 -194 -56 -111
-123 -168 -268 -230 -50 -21 -169 -21 -233 1 -141 48 -242 146 -294 287 -33
86 -22 241 21 316 5 8 13 25 19 37 5 12 35 48 68 81 61 61 140 106 215 122 62
13 190 2 243 -21z"/>
<path d="M12458 12530 c-17 -10 -18 -68 -18 -988 0 -537 4 -983 9 -990 6 -11
45 -14 164 -14 86 0 161 3 167 7 6 4 10 131 10 369 0 279 3 366 13 374 7 5
145 12 337 16 179 3 348 10 375 15 277 48 442 182 505 410 37 130 24 334 -26
434 -8 16 -14 33 -14 38 0 6 -18 36 -40 68 -77 115 -189 190 -360 242 -73 22
-87 23 -590 26 -351 2 -521 0 -532 -7z m1047 -330 c80 -33 155 -107 178 -177
61 -187 -39 -362 -233 -406 -68 -15 -628 -21 -646 -6 -21 17 -21 604 0 616 8
4 155 6 328 3 303 -5 315 -6 373 -30z"/>
<path d="M17231 12329 c-74 -38 -137 -71 -140 -74 -3 -3 -4 -80 -2 -171 2
-118 -1 -169 -9 -179 -9 -11 -36 -15 -100 -15 -71 0 -89 -3 -94 -16 -3 -9 -6
-62 -6 -119 0 -57 3 -110 6 -119 5 -13 23 -16 94 -16 63 0 91 -4 99 -14 9 -10
12 -139 11 -483 -1 -379 1 -480 13 -530 35 -148 162 -224 350 -210 95 8 223
39 245 61 12 12 13 21 4 43 -6 15 -18 54 -28 85 -9 32 -22 62 -28 66 -6 5 -51
5 -101 1 -105 -9 -123 0 -127 66 -1 22 -1 237 0 478 l2 437 114 0 c75 0 117 4
122 11 4 6 9 63 12 126 4 92 2 117 -9 124 -8 5 -64 9 -125 9 -93 0 -113 3
-118 16 -3 9 -6 116 -6 239 0 190 -2 226 -16 239 -8 9 -18 16 -22 15 -4 0 -67
-31 -141 -70z"/>
<path d="M21213 12340 c-182 -93 -162 -61 -165 -268 l-3 -177 -95 -5 -95 -5 0
-130 0 -130 95 -5 95 -5 5 -515 5 -515 27 -51 c15 -29 44 -66 65 -83 47 -39
147 -71 222 -71 58 1 216 29 264 49 32 13 35 39 11 115 -35 109 -21 99 -136
95 -150 -6 -138 -52 -138 504 -1 252 2 462 5 467 3 6 58 10 120 10 99 0 115 2
122 18 5 9 8 69 8 132 l0 115 -120 3 c-66 1 -123 6 -127 10 -3 4 -9 114 -12
245 -3 131 -8 242 -11 247 -10 16 -25 11 -142 -50z"/>
<path d="M15855 12051 c-146 -30 -186 -43 -275 -90 -61 -32 -169 -142 -211
-216 -77 -132 -112 -282 -112 -474 0 -107 5 -153 22 -216 53 -200 124 -315
245 -398 107 -74 189 -105 353 -133 97 -16 109 -16 210 0 370 58 555 255 595
634 21 203 -12 414 -92 572 -36 72 -170 213 -230 242 -69 33 -106 47 -165 63
-68 19 -279 28 -340 16z m249 -291 c108 -41 183 -138 221 -285 24 -93 21 -324
-6 -411 -30 -101 -58 -150 -113 -200 -70 -64 -122 -84 -219 -84 -191 0 -301
82 -370 275 -29 82 -31 337 -3 430 46 156 120 239 251 283 55 18 179 14 239
-8z"/>
<path d="M14861 12029 c-68 -20 -161 -98 -176 -147 -13 -44 -30 -16 -35 59
l-5 74 -149 3 c-101 2 -153 -1 -162 -9 -12 -10 -14 -131 -14 -735 0 -478 3
-725 10 -729 8 -5 233 -9 307 -6 9 1 13 119 16 479 4 528 5 539 70 624 50 66
85 81 180 80 67 0 92 -5 134 -26 29 -14 57 -26 63 -26 11 0 130 242 130 266 0
67 -243 129 -369 93z"/>
<path d="M18430 11910 c-19 -4 -60 -13 -90 -19 -62 -12 -70 -15 -161 -60 -104
-52 -170 -109 -231 -203 -57 -88 -64 -104 -105 -238 -24 -77 -26 -101 -27
-255 0 -148 3 -180 23 -248 80 -277 228 -422 496 -490 111 -28 338 -30 445 -4
115 29 156 48 251 117 69 50 150 163 176 246 20 66 16 72 -64 90 -98 22 -147
36 -182 50 -48 21 -68 10 -88 -47 -25 -69 -94 -145 -162 -177 -50 -24 -67 -27
-161 -26 -80 1 -116 6 -154 21 -58 24 -138 91 -171 144 -32 49 -67 152 -63
181 l3 23 532 3 533 2 6 26 c10 40 -4 241 -22 309 -62 240 -134 359 -273 449
-140 90 -368 138 -511 106z m263 -324 c61 -30 119 -82 145 -131 26 -51 43
-127 30 -142 -8 -10 -80 -13 -337 -13 -179 0 -332 4 -340 9 -26 16 18 135 71
192 105 112 295 150 431 85z"/>
<path d="M20048 11915 c-2 -3 -36 -11 -74 -19 -146 -30 -241 -82 -336 -185
-124 -135 -187 -317 -193 -561 -7 -301 95 -542 281 -665 119 -79 303 -121 487
-112 163 8 301 60 399 149 50 46 111 144 147 239 48 126 47 129 -79 154 -47 9
-108 22 -137 28 -62 12 -79 3 -89 -52 -14 -73 -70 -160 -124 -194 -56 -35
-100 -47 -175 -47 -247 0 -372 167 -369 495 0 94 25 246 43 270 5 5 11 22 15
37 9 38 94 122 152 149 40 18 66 23 139 23 78 0 97 -4 142 -27 60 -31 120 -98
143 -159 15 -42 17 -43 60 -41 71 2 245 47 269 69 28 26 -55 190 -138 273 -47
47 -139 108 -177 117 -16 4 -34 10 -39 15 -34 26 -327 63 -347 44z"/>
<path d="M23220 9704 c-57 -30 -119 -63 -137 -74 l-33 -19 0 -169 c0 -127 -3
-172 -13 -180 -7 -6 -51 -12 -97 -14 l-85 -3 -3 -123 -3 -122 28 -11 c15 -6
56 -9 90 -6 37 3 66 0 72 -6 8 -8 11 -162 11 -495 0 -476 0 -486 22 -546 41
-113 125 -174 263 -191 72 -9 295 31 322 58 14 14 10 35 -34 190 -5 15 -14 17
-87 11 -44 -4 -83 -6 -86 -6 -28 0 -41 4 -54 18 -14 14 -16 71 -16 484 0 354
3 471 12 476 7 4 55 7 109 5 75 -2 99 1 111 12 22 22 32 226 13 246 -11 11
-37 14 -110 12 -52 -1 -103 0 -114 4 -17 5 -19 24 -26 248 -4 133 -9 245 -12
250 -9 14 -40 4 -143 -49z"/>
<path d="M13086 9700 c-146 -18 -320 -79 -426 -148 -134 -88 -245 -236 -309
-412 -25 -67 -60 -246 -72 -364 -10 -92 -10 -137 -1 -200 7 -45 12 -98 12
-118 0 -39 39 -207 64 -273 132 -356 429 -538 876 -538 80 -1 174 5 210 12
327 60 527 228 646 541 9 25 17 60 18 79 1 33 -1 35 -54 51 -133 41 -282 72
-293 61 -5 -5 -12 -24 -17 -42 -36 -143 -122 -270 -233 -344 -21 -14 -42 -25
-48 -25 -5 0 -23 -7 -38 -15 -16 -8 -69 -19 -119 -25 -248 -30 -460 62 -564
248 -124 218 -142 580 -42 843 72 192 212 314 407 356 230 49 438 -45 573
-259 13 -20 26 -48 30 -62 12 -51 16 -51 179 -5 17 4 61 16 99 26 86 22 96 37
71 95 -57 130 -206 311 -316 384 -71 48 -166 89 -257 113 -96 25 -287 35 -396
21z"/>
<path d="M16845 9274 c-104 -19 -168 -49 -236 -112 -31 -28 -59 -49 -63 -45
-3 3 -6 32 -6 64 0 32 -5 61 -11 65 -16 9 -291 6 -301 -4 -4 -4 -7 -334 -6
-733 l3 -724 155 0 155 0 5 480 5 480 26 55 c38 81 69 112 156 156 75 37 82
39 178 39 95 0 102 -2 145 -30 33 -22 53 -47 75 -90 l30 -60 5 -515 5 -515
160 0 160 0 0 555 c0 509 -2 560 -18 615 -40 131 -103 213 -202 266 -108 57
-282 79 -420 53z"/>
<path d="M18520 9274 c-99 -18 -179 -58 -239 -117 -25 -25 -45 -37 -51 -31 -5
5 -10 34 -12 64 l-3 55 -156 3 c-155 2 -157 2 -163 -20 -9 -35 -7 -1421 2
-1436 7 -9 46 -12 163 -10 l154 3 5 485 c5 456 6 487 25 525 36 75 81 120 157
160 70 37 77 39 173 39 90 1 104 -2 140 -24 46 -28 72 -58 100 -115 18 -38 20
-69 25 -555 l5 -515 160 0 160 0 0 535 c0 490 -2 542 -19 615 -24 102 -43 139
-105 207 -108 118 -314 170 -521 132z"/>
<path d="M20170 9279 c-125 -18 -177 -28 -215 -44 -196 -79 -325 -203 -392
-375 -46 -119 -58 -196 -58 -370 0 -184 9 -228 73 -380 32 -74 48 -96 122
-170 103 -103 173 -141 329 -179 119 -29 333 -30 449 0 85 21 187 69 248 116
50 38 120 132 155 208 34 75 36 91 11 104 -16 8 -209 62 -279 78 -19 4 -26 -3
-45 -43 -74 -158 -161 -214 -333 -214 -75 0 -106 5 -151 23 -64 25 -135 83
-169 137 -32 50 -77 184 -69 204 5 14 59 16 538 18 l531 3 3 110 c4 129 -15
241 -60 360 -51 133 -102 206 -196 278 -110 85 -198 115 -412 141 -14 1 -50
-1 -80 -5z m168 -314 c75 -22 135 -68 177 -136 25 -41 36 -70 37 -105 l3 -49
-340 0 -340 0 2 37 c7 112 117 220 261 257 75 19 122 18 200 -4z"/>
<path d="M15035 9266 c-183 -32 -329 -116 -427 -246 -86 -114 -147 -326 -150
-525 -1 -74 25 -232 52 -310 54 -158 169 -295 300 -358 149 -72 197 -82 375
-82 134 1 172 4 232 22 228 68 361 198 437 424 28 85 49 267 42 360 -27 364
-162 578 -431 684 -104 41 -292 55 -430 31z m300 -299 c123 -63 177 -157 210
-364 16 -97 16 -107 -3 -226 -17 -101 -28 -138 -59 -198 -70 -134 -174 -188
-339 -176 -134 10 -253 96 -300 218 -49 124 -66 282 -43 389 5 25 12 61 15 80
10 56 69 172 109 213 70 72 146 98 275 93 68 -3 95 -8 135 -29z"/>
<path d="M21760 9265 c-265 -52 -435 -213 -511 -486 -30 -108 -42 -275 -30
-398 17 -161 54 -272 128 -383 55 -83 117 -138 208 -182 132 -63 170 -71 375
-71 165 0 191 2 245 22 140 50 220 115 300 243 29 47 85 192 85 222 0 18 -39
32 -180 63 -134 29 -130 30 -159 -50 -46 -123 -76 -162 -161 -206 -64 -33
-211 -33 -285 0 -97 43 -161 123 -194 242 -27 96 -30 330 -6 424 50 193 158
285 333 285 131 0 217 -56 278 -179 16 -34 36 -61 44 -61 19 0 236 55 273 69
28 11 33 28 18 59 -5 9 -19 40 -32 67 -60 131 -180 240 -320 290 -122 43 -280
55 -409 30z"/>
</g>
</svg>
